<svg viewBox="0 0 329.9884338378906 199.98843383789062" xmlns="http://www.w3.org/2000/svg"><g><g><g><g><g><line x1="50" y1="176.988" x2="45" y2="176.988" style="visibility: inherit;" fill="rgb(0, 0, 0)" stroke="rgb(204, 204, 204)" stroke-width="1px"></line><line x1="50" y1="151.70399999999987" x2="45" y2="151.70399999999987" style="visibility: inherit;" fill="rgb(0, 0, 0)" stroke="rgb(204, 204, 204)" stroke-width="1px"></line><line x1="50" y1="126.41999999999996" x2="45" y2="126.41999999999996" style="visibility: inherit;" fill="rgb(0, 0, 0)" stroke="rgb(204, 204, 204)" stroke-width="1px"></line><line x1="50" y1="101.13599999999984" x2="45" y2="101.13599999999984" style="visibility: inherit;" fill="rgb(0, 0, 0)" stroke="rgb(204, 204, 204)" stroke-width="1px"></line><line x1="50" y1="75.85199999999993" x2="45" y2="75.85199999999993" style="visibility: inherit;" fill="rgb(0, 0, 0)" stroke="rgb(204, 204, 204)" stroke-width="1px"></line><line x1="50" y1="50.56800000000003" x2="45" y2="50.56800000000003" style="visibility: inherit;" fill="rgb(0, 0, 0)" stroke="rgb(204, 204, 204)" stroke-width="1px"></line><line x1="50" y1="25.28399999999991" x2="45" y2="25.28399999999991" style="visibility: inherit;" fill="rgb(0, 0, 0)" stroke="rgb(204, 204, 204)" stroke-width="1px"></line><line x1="50" y1="0" x2="45" y2="0" style="visibility: inherit;" fill="rgb(0, 0, 0)" stroke="rgb(204, 204, 204)" stroke-width="1px"></line></g><g transform="translate(40, 0)"><text x="0" y="176.988" dx="0em" dy="0.3em" style="text-anchor: end; visibility: hidden; font-family: Roboto, sans-serif; font-size: 12px; font-weight: 200;" fill="rgb(33, 33, 33)" stroke="none" stroke-width="1px">2.55</text><text x="0" y="151.70399999999987" dx="0em" dy="0.3em" style="text-anchor: end; visibility: inherit; font-family: Roboto, sans-serif; font-size: 12px; font-weight: 200;" fill="rgb(33, 33, 33)" stroke="none" stroke-width="1px">2.6</text><text x="0" y="126.41999999999996" dx="0em" dy="0.3em" style="text-anchor: end; visibility: inherit; font-family: Roboto, sans-serif; font-size: 12px; font-weight: 200;" fill="rgb(33, 33, 33)" stroke="none" stroke-width="1px">2.65</text><text x="0" y="101.13599999999984" dx="0em" dy="0.3em" style="text-anchor: end; visibility: inherit; font-family: Roboto, sans-serif; font-size: 12px; font-weight: 200;" fill="rgb(33, 33, 33)" stroke="none" stroke-width="1px">2.7</text><text x="0" y="75.85199999999993" dx="0em" dy="0.3em" style="text-anchor: end; visibility: inherit; font-family: Roboto, sans-serif; font-size: 12px; font-weight: 200;" fill="rgb(33, 33, 33)" stroke="none" stroke-width="1px">2.75</text><text x="0" y="50.56800000000003" dx="0em" dy="0.3em" style="text-anchor: end; visibility: inherit; font-family: Roboto, sans-serif; font-size: 12px; font-weight: 200;" fill="rgb(33, 33, 33)" stroke="none" stroke-width="1px">2.8</text><text x="0" y="25.28399999999991" dx="0em" dy="0.3em" style="text-anchor: end; visibility: inherit; font-family: Roboto, sans-serif; font-size: 12px; font-weight: 200;" fill="rgb(33, 33, 33)" stroke="none" stroke-width="1px">2.85</text><text x="0" y="0" dx="0em" dy="0.3em" style="text-anchor: end; visibility: hidden; font-family: Roboto, sans-serif; font-size: 12px; font-weight: 200;" fill="rgb(33, 33, 33)" stroke="none" stroke-width="1px">2.9</text></g><line x1="50" y1="0" x2="50" y2="176.988" fill="rgb(0, 0, 0)" stroke="rgb(204, 204, 204)" stroke-width="1px"></line></g></g><g transform="translate(50, 0)" clip-path="url(#clip_0)"><clipPath id="clip_0"><rect width="279" height="176"></rect></clipPath><g><g><g><line x1="0" y1="0" x2="0" y2="176.988" fill="rgb(0, 0, 0)" stroke="rgb(66, 66, 66)" stroke-width="1px" opacity="0.25"></line><line x1="23.33233333333333" y1="0" x2="23.33233333333333" y2="176.988" fill="rgb(0, 0, 0)" stroke="rgb(66, 66, 66)" stroke-width="1px" opacity="0.25"></line><line x1="46.66466666666666" y1="0" x2="46.66466666666666" y2="176.988" fill="rgb(0, 0, 0)" stroke="rgb(66, 66, 66)" stroke-width="1px" opacity="0.25"></line><line x1="69.997" y1="0" x2="69.997" y2="176.988" fill="rgb(0, 0, 0)" stroke="rgb(66, 66, 66)" stroke-width="1px" opacity="0.25"></line><line x1="93.32933333333332" y1="0" x2="93.32933333333332" y2="176.988" fill="rgb(0, 0, 0)" stroke="rgb(66, 66, 66)" stroke-width="1px" opacity="0.25"></line><line x1="116.66166666666668" y1="0" x2="116.66166666666668" y2="176.988" fill="rgb(0, 0, 0)" stroke="rgb(66, 66, 66)" stroke-width="1px" opacity="0.25"></line><line x1="139.994" y1="0" x2="139.994" y2="176.988" fill="rgb(0, 0, 0)" stroke="rgb(66, 66, 66)" stroke-width="1px" opacity="0.25"></line><line x1="163.32633333333334" y1="0" x2="163.32633333333334" y2="176.988" fill="rgb(0, 0, 0)" stroke="rgb(66, 66, 66)" stroke-width="1px" opacity="0.25"></line><line x1="186.65866666666665" y1="0" x2="186.65866666666665" y2="176.988" fill="rgb(0, 0, 0)" stroke="rgb(66, 66, 66)" stroke-width="1px" opacity="0.25"></line><line x1="209.99099999999999" y1="0" x2="209.99099999999999" y2="176.988" fill="rgb(0, 0, 0)" stroke="rgb(66, 66, 66)" stroke-width="1px" opacity="0.25"></line><line x1="233.32333333333335" y1="0" x2="233.32333333333335" y2="176.988" fill="rgb(0, 0, 0)" stroke="rgb(66, 66, 66)" stroke-width="1px" opacity="0.25"></line><line x1="256.65566666666666" y1="0" x2="256.65566666666666" y2="176.988" fill="rgb(0, 0, 0)" stroke="rgb(66, 66, 66)" stroke-width="1px" opacity="0.25"></line><line x1="279.988" y1="0" x2="279.988" y2="176.988" fill="rgb(0, 0, 0)" stroke="rgb(66, 66, 66)" stroke-width="1px" opacity="0.25"></line></g><g><line x1="0" y1="176.988" x2="279.988" y2="176.988" fill="rgb(0, 0, 0)" stroke="rgb(66, 66, 66)" stroke-width="1px" opacity="0.25"></line><line x1="0" y1="151.70399999999987" x2="279.988" y2="151.70399999999987" fill="rgb(0, 0, 0)" stroke="rgb(66, 66, 66)" stroke-width="1px" opacity="0.25"></line><line x1="0" y1="126.41999999999996" x2="279.988" y2="126.41999999999996" fill="rgb(0, 0, 0)" stroke="rgb(66, 66, 66)" stroke-width="1px" opacity="0.25"></line><line x1="0" y1="101.13599999999984" x2="279.988" y2="101.13599999999984" fill="rgb(0, 0, 0)" stroke="rgb(66, 66, 66)" stroke-width="1px" opacity="0.25"></line><line x1="0" y1="75.85199999999993" x2="279.988" y2="75.85199999999993" fill="rgb(0, 0, 0)" stroke="rgb(66, 66, 66)" stroke-width="1px" opacity="0.25"></line><line x1="0" y1="50.56800000000003" x2="279.988" y2="50.56800000000003" fill="rgb(0, 0, 0)" stroke="rgb(66, 66, 66)" stroke-width="1px" opacity="0.25"></line><line x1="0" y1="25.28399999999991" x2="279.988" y2="25.28399999999991" fill="rgb(0, 0, 0)" stroke="rgb(66, 66, 66)" stroke-width="1px" opacity="0.25"></line><line x1="0" y1="0" x2="279.988" y2="0" fill="rgb(0, 0, 0)" stroke="rgb(66, 66, 66)" stroke-width="1px" opacity="0.25"></line></g></g></g><g><g><line x1="0" y1="1466.4719999999995" x2="279.988" y2="1466.4719999999995" fill="rgb(0, 0, 0)" stroke="rgb(153, 153, 153)" stroke-width="1.5px"></line></g></g><g><g><line x1="23.33233333333333" y1="0" x2="23.33233333333333" y2="176.988" fill="rgb(0, 0, 0)" stroke="rgb(153, 153, 153)" stroke-width="1.5px"></line></g></g><g><g><g><g><g><path stroke="rgb(255, 112, 67)" stroke-width="2px" d="M34.9985,-24.89036108644891L37.33173333333333,10.615403963666083L39.664966666666665,31.379198939857982L41.9982,33.72284433541643L44.33143333333333,42.38950206842644L46.66466666666666,53.163960244161885L48.997899999999994,60.65654685821516L51.33113333333333,67.53360188988019L53.66436666666667,83.61090961491395L55.997600000000006,75.46270798878429L58.33083333333334,84.60234034389553L60.66406666666667,93.20930488727726L62.9973,98.71289244015362L65.33053333333334,92.7132833675654L67.66376666666666,99.25517068623378L69.997,94.72071364506996L72.33023333333334,103.10785687753763L74.66346666666666,106.86333716976996L76.9967,108.70990567566524L79.32993333333333,102.13250438393908L81.66316666666667,115.68105558104718L83.9964,108.78223243254746L86.32963333333333,116.32406687914585L88.66286666666666,107.62420581614197L90.9961,111.95654278310658L93.32933333333332,118.25189140638881L95.66256666666666,124.11759748712043L97.99579999999999,124.64887798951115L100.32903333333333,134.07790754791645L102.66226666666665,128.99094606299496L104.99549999999999,134.4780414915844L107.32873333333335,137.60985277149175L109.66196666666667,132.5566342695617L111.99520000000001,136.3366860399452L114.32843333333334,145.35588770149533L116.66166666666668,139.1380456786866L118.9949,141.3382934169723L121.32813333333334,139.56613277693054L123.66136666666667,135.5511523868617L125.9946,128.79850211972914L128.32783333333333,139.9857052280787L130.66106666666667,148.6482141575902L132.99429999999998,149.13665360443557L135.32753333333332,148.55452266191566L137.66076666666666,143.7307947707905L139.994,148.33184659517744L142.3272333333333,142.71948679924247L144.66046666666668,142.5563595874796L146.99370000000002,141.53660645988316L149.32693333333333,144.25712991902384L151.66016666666667,137.6790209369448L153.9934,146.7242719722655L156.32663333333335,146.65623439155027L158.65986666666666,145.91879589921228L160.9931,144.67931157120435L163.32633333333334,145.69266530118213L165.65956666666668,137.22296883708125L167.9928,131.71662273749035L170.32603333333333,136.5849471654436L172.65926666666667,139.60012603394617L174.9925,150.77624624872456L177.32573333333332,151.55323202962984L179.6589666666667,158.29205341913286L181.9922,160.0465204090235L184.32543333333334,154.50365338463521L186.65866666666665,149.00740423933814L188.99190000000002,143.84048636379325L191.32513333333333,145.34764594882992L193.65836666666667,143.7244483374251L195.99159999999998,131.50793450996258L198.32483333333334,151.21424799998402L200.65806666666666,143.2414117806424L202.9913,156.6229172099869L205.3245333333333,157.99599149573086L207.65776666666667,154.07812155912058L209.99099999999999,167.92312953184685L212.32423333333332,165.53021951293124L214.6574666666667,158.27656090392588L216.9907,155.78364791930866L219.32393333333334,147.92504047888005L221.65716666666665,159.12681489554342L223.99040000000002,161.11484560999455L226.32363333333333,164.84350039578183L228.65686666666667,161.95105361881662L230.99009999999998,159.7530074886726L233.32333333333335,155.12176979166563L235.65656666666666,157.6943589987176L237.9898,155.0532014176021L240.3230333333333,152.78944497165503L242.65626666666668,160.0763661681735L244.9895,170.81128208493737L247.32273333333333,168.351172583482L249.65596666666667,166.70448540738897L251.9892,151.89840020286832L254.32243333333332,148.04682873866443L256.65566666666666,154.69872165268356" style="fill: none;" fill="none"></path></g></g></g></g><g opacity="0.2"><g><g><g><path stroke="rgb(255, 112, 67)" stroke-width="2px" d="M30.332033333333335,-85.81124495315554L32.66526666666667,10.034331905364951L34.9985,63.808911277770946L37.33173333333333,59.7326591033935L39.664966666666665,61.07175797653192L41.9982,37.13990182113643L44.33143333333333,55.17113881301874L46.66466666666666,69.16277493667597L48.997899999999994,71.82746957015985L51.33113333333333,77.8117598075866L53.66436666666667,107.6743760032653L55.997600000000006,63.256368724822934L58.33083333333334,98.30104558181756L60.66406666666667,106.11368140411369L62.9973,106.96594483566278L65.33053333333334,83.71539305877678L67.66376666666666,109.06700507354728L69.997,87.91944255065913L72.33023333333334,115.68811175537103L74.66346666666666,112.4964340324401L76.9967,111.47972197723381L79.32993333333333,92.2664803619384L81.66316666666667,136.00378607940664L83.9964,98.43402713012686L86.32963333333333,127.63679925155633L88.66286666666666,94.57442757797236L90.9961,118.4550442428588L93.32933333333332,127.6949108619689L95.66256666666666,132.91615466308588L97.99579999999999,125.44579863739006L100.32903333333333,148.22145075988763L102.66226666666665,121.3605041999816L104.99549999999999,142.70868439865103L107.32873333333335,142.30756961059564L109.66196666666667,124.97680659484854L111.99520000000001,142.0067636604308L114.32843333333334,158.88469014358512L116.66166666666668,129.8112826652526L118.9949,144.63866501998893L121.32813333333334,136.90789181900016L123.66136666666667,129.5286818046569L125.9946,118.66952672195427L128.32783333333333,156.76650988769524L130.66106666666667,161.6419775505065L132.99429999999998,149.86931277465814L135.32753333333332,147.68132624816886L137.66076666666666,136.49520293426505L139.994,155.23342433166493L142.3272333333333,134.30094710540763L144.66046666666668,142.31166876983636L146.99370000000002,140.0069767684936L149.32693333333333,148.33791510772699L151.66016666666667,127.81185746383659L153.9934,160.29214852523796L156.32663333333335,146.55417802047722L158.65986666666666,144.8126381607055L160.9931,142.82008507919303L163.32633333333334,147.2126958961486L165.65956666666668,124.5184241409301L167.9928,123.45710358810418L170.32603333333333,143.887433807373L172.65926666666667,144.12289433670037L174.9925,167.54042657089224L177.32573333333332,152.71871070098868L179.6589666666667,168.40028550338735L181.9922,162.67822089385976L184.32543333333334,146.1893528480529L186.65866666666665,140.76303052139275L188.99190000000002,136.090109550476L191.32513333333333,147.60838532638542L193.65836666666667,141.28965192031853L195.99159999999998,113.18316376876824L198.32483333333334,180.7737182350158L200.65806666666666,131.28215745162956L202.9913,176.69517535400382L205.3245333333333,160.05560292434686L207.65776666666667,148.20131665420524L209.99099999999999,188.6906414909362L212.32423333333332,161.94085448455803L214.6574666666667,147.3960729904174L216.9907,152.04427844238273L219.32393333333334,136.1371293182372L221.65716666666665,175.92947652053823L223.99040000000002,164.09689168167105L226.32363333333333,170.43648257446281L228.65686666666667,157.61238345336906L230.99009999999998,156.45593829345694L233.32333333333335,148.17491324615472L235.65656666666666,161.55324280929557L237.9898,151.09146504592886L240.3230333333333,149.3938103027343L242.65626666666668,171.00674796295158L244.9895,186.9136559600829L247.32273333333333,164.66100833129875L249.65596666666667,164.23445464324942L251.9892,129.68927239608757L254.32243333333332,142.26947154235833L256.65566666666666,164.67656102371208" style="fill: none;" fill="none"></path></g></g></g></g></g></g><g transform="translate(50, 176)" clip-path="url(#clip_1)"><clipPath id="clip_1"><rect width="279" height="22"></rect></clipPath><g><g><line x1="0" y1="0" x2="0" y2="5" style="visibility: inherit;" fill="rgb(0, 0, 0)" stroke="rgb(204, 204, 204)" stroke-width="1px"></line><line x1="23.33233333333333" y1="0" x2="23.33233333333333" y2="5" style="visibility: inherit;" fill="rgb(0, 0, 0)" stroke="rgb(204, 204, 204)" stroke-width="1px"></line><line x1="46.66466666666666" y1="0" x2="46.66466666666666" y2="5" style="visibility: inherit;" fill="rgb(0, 0, 0)" stroke="rgb(204, 204, 204)" stroke-width="1px"></line><line x1="69.997" y1="0" x2="69.997" y2="5" style="visibility: inherit;" fill="rgb(0, 0, 0)" stroke="rgb(204, 204, 204)" stroke-width="1px"></line><line x1="93.32933333333332" y1="0" x2="93.32933333333332" y2="5" style="visibility: inherit;" fill="rgb(0, 0, 0)" stroke="rgb(204, 204, 204)" stroke-width="1px"></line><line x1="116.66166666666668" y1="0" x2="116.66166666666668" y2="5" style="visibility: inherit;" fill="rgb(0, 0, 0)" stroke="rgb(204, 204, 204)" stroke-width="1px"></line><line x1="139.994" y1="0" x2="139.994" y2="5" style="visibility: inherit;" fill="rgb(0, 0, 0)" stroke="rgb(204, 204, 204)" stroke-width="1px"></line><line x1="163.32633333333334" y1="0" x2="163.32633333333334" y2="5" style="visibility: inherit;" fill="rgb(0, 0, 0)" stroke="rgb(204, 204, 204)" stroke-width="1px"></line><line x1="186.65866666666665" y1="0" x2="186.65866666666665" y2="5" style="visibility: inherit;" fill="rgb(0, 0, 0)" stroke="rgb(204, 204, 204)" stroke-width="1px"></line><line x1="209.99099999999999" y1="0" x2="209.99099999999999" y2="5" style="visibility: inherit;" fill="rgb(0, 0, 0)" stroke="rgb(204, 204, 204)" stroke-width="1px"></line><line x1="233.32333333333335" y1="0" x2="233.32333333333335" y2="5" style="visibility: inherit;" fill="rgb(0, 0, 0)" stroke="rgb(204, 204, 204)" stroke-width="1px"></line><line x1="256.65566666666666" y1="0" x2="256.65566666666666" y2="5" style="visibility: inherit;" fill="rgb(0, 0, 0)" stroke="rgb(204, 204, 204)" stroke-width="1px"></line><line x1="279.988" y1="0" x2="279.988" y2="5" style="visibility: inherit;" fill="rgb(0, 0, 0)" stroke="rgb(204, 204, 204)" stroke-width="1px"></line></g><g transform="translate(0, 8)"><text x="0" y="0" dx="0em" dy="0.95em" style="text-anchor: middle; visibility: hidden; font-family: Roboto, sans-serif; font-size: 12px; font-weight: 200;" fill="rgb(33, 33, 33)" stroke="none" stroke-width="1px">-10</text><text x="23.33233333333333" y="0" dx="0em" dy="0.95em" style="text-anchor: middle; visibility: inherit; font-family: Roboto, sans-serif; font-size: 12px; font-weight: 200;" fill="rgb(33, 33, 33)" stroke="none" stroke-width="1px">0</text><text x="46.66466666666666" y="0" dx="0em" dy="0.95em" style="text-anchor: middle; visibility: inherit; font-family: Roboto, sans-serif; font-size: 12px; font-weight: 200;" fill="rgb(33, 33, 33)" stroke="none" stroke-width="1px">10</text><text x="69.997" y="0" dx="0em" dy="0.95em" style="text-anchor: middle; visibility: inherit; font-family: Roboto, sans-serif; font-size: 12px; font-weight: 200;" fill="rgb(33, 33, 33)" stroke="none" stroke-width="1px">20</text><text x="93.32933333333332" y="0" dx="0em" dy="0.95em" style="text-anchor: middle; visibility: inherit; font-family: Roboto, sans-serif; font-size: 12px; font-weight: 200;" fill="rgb(33, 33, 33)" stroke="none" stroke-width="1px">30</text><text x="116.66166666666668" y="0" dx="0em" dy="0.95em" style="text-anchor: middle; visibility: inherit; font-family: Roboto, sans-serif; font-size: 12px; font-weight: 200;" fill="rgb(33, 33, 33)" stroke="none" stroke-width="1px">40</text><text x="139.994" y="0" dx="0em" dy="0.95em" style="text-anchor: middle; visibility: inherit; font-family: Roboto, sans-serif; font-size: 12px; font-weight: 200;" fill="rgb(33, 33, 33)" stroke="none" stroke-width="1px">50</text><text x="163.32633333333334" y="0" dx="0em" dy="0.95em" style="text-anchor: middle; visibility: inherit; font-family: Roboto, sans-serif; font-size: 12px; font-weight: 200;" fill="rgb(33, 33, 33)" stroke="none" stroke-width="1px">60</text><text x="186.65866666666665" y="0" dx="0em" dy="0.95em" style="text-anchor: middle; visibility: inherit; font-family: Roboto, sans-serif; font-size: 12px; font-weight: 200;" fill="rgb(33, 33, 33)" stroke="none" stroke-width="1px">70</text><text x="209.99099999999999" y="0" dx="0em" dy="0.95em" style="text-anchor: middle; visibility: inherit; font-family: Roboto, sans-serif; font-size: 12px; font-weight: 200;" fill="rgb(33, 33, 33)" stroke="none" stroke-width="1px">80</text><text x="233.32333333333335" y="0" dx="0em" dy="0.95em" style="text-anchor: middle; visibility: inherit; font-family: Roboto, sans-serif; font-size: 12px; font-weight: 200;" fill="rgb(33, 33, 33)" stroke="none" stroke-width="1px">90</text><text x="256.65566666666666" y="0" dx="0em" dy="0.95em" style="text-anchor: middle; visibility: inherit; font-family: Roboto, sans-serif; font-size: 12px; font-weight: 200;" fill="rgb(33, 33, 33)" stroke="none" stroke-width="1px">100</text><text x="279.988" y="0" dx="0em" dy="0.95em" style="text-anchor: middle; visibility: hidden; font-family: Roboto, sans-serif; font-size: 12px; font-weight: 200;" fill="rgb(33, 33, 33)" stroke="none" stroke-width="1px">110</text></g><line x1="0" y1="0" x2="279.988" y2="0" fill="rgb(0, 0, 0)" stroke="rgb(204, 204, 204)" stroke-width="1px"></line></g></g></g></g></svg>